<?xml version="1.0" encoding="UTF-8" standalone="no"?>
<!-- Created with Inkscape (http://www.inkscape.org/) -->

<svg
   xmlns:dc="http://purl.org/dc/elements/1.1/"
   xmlns:cc="http://creativecommons.org/ns#"
   xmlns:rdf="http://www.w3.org/1999/02/22-rdf-syntax-ns#"
   xmlns:svg="http://www.w3.org/2000/svg"
   xmlns="http://www.w3.org/2000/svg"
   xmlns:sodipodi="http://sodipodi.sourceforge.net/DTD/sodipodi-0.dtd"
   xmlns:inkscape="http://www.inkscape.org/namespaces/inkscape"
   id="svg3158"
   version="1.1"
   inkscape:version="0.48.2 r9819"
   width="1024"
   height="768"
   sodipodi:docname="Tig.svg">
  <metadata
     id="metadata3164">
    <rdf:RDF>
      <cc:Work
         rdf:about="">
        <dc:format>image/svg+xml</dc:format>
        <dc:type
           rdf:resource="http://purl.org/dc/dcmitype/StillImage" />
        <dc:title></dc:title>
      </cc:Work>
    </rdf:RDF>
  </metadata>
  <defs
     id="defs3162" />
  <sodipodi:namedview
     pagecolor="#ffffff"
     bordercolor="#666666"
     borderopacity="1"
     objecttolerance="10"
     gridtolerance="10"
     guidetolerance="10"
     inkscape:pageopacity="0"
     inkscape:pageshadow="2"
     inkscape:window-width="1116"
     inkscape:window-height="622"
     id="namedview3160"
     showgrid="false"
     inkscape:zoom="0.30729167"
     inkscape:cx="512"
     inkscape:cy="384"
     inkscape:window-x="76"
     inkscape:window-y="31"
     inkscape:window-maximized="0"
     inkscape:current-layer="svg3158" />
  <path
     style="fill:#ffffff"
     d="m 250.2458,684.29719 c -11.076,-5.92849 -15.9847,-15.92822 -14.0738,-28.67058 1.2925,-8.61949 9.3908,-16.95105 17.7803,-18.29259 2.3795,-0.3805 4.286,-1.45373 5.2816,-2.9732 0.9295,-1.41855 2.5334,-2.37778 3.9759,-2.37778 3.6268,0 3.939,-1.66386 0.5348,-2.85057 -3.3693,-1.17453 -3.8621,-2.60078 -1.2488,-3.61386 1.6666,-0.64611 1.6666,-0.73978 0,-1.96723 -2.473,-1.82128 -2.2185,-2.25787 1.75,-3.00236 1.925,-0.36113 3.5,-0.79784 3.5,-0.97046 0,-0.17262 -1.549,-3.66647 -3.4423,-7.7641 -5.1854,-11.22329 -7.5627,-24.63121 -7.5333,-42.4885 0.013,-8.16361 0.4841,-16.86792 1.0458,-19.34292 1.2336,-5.43537 12.3882,-30.38472 15.3293,-34.28677 1.1553,-1.53272 3.34,-4.29447 4.855,-6.13721 3.4621,-4.21097 5.9833,-11.21686 5.2455,-14.57602 -0.6917,-3.14903 1.3079,-9.00011 6.6639,-19.5 4.3761,-8.57906 6.6427,-11.73757 7.8758,-10.97544 1.0379,0.64145 -1.0179,7.52479 -2.9195,9.77554 -1.2534,1.48352 -1.3125,2.35209 -0.3362,4.93878 1.0492,2.77949 0.8904,3.64102 -1.3878,7.5284 -1.4149,2.41435 -2.3079,4.6544 -1.9844,4.97789 0.3235,0.32349 0.5882,0.0632 0.5882,-0.5785 0,-0.64167 0.675,-1.16667 1.5,-1.16667 2.0211,0 1.8954,1.13265 -0.7246,6.52541 -1.8987,3.90807 -2.0111,4.71091 -0.767,5.47983 1.2607,0.77912 1.2094,1.5494 -0.3796,5.69784 -5.5691,14.5392 -5.8742,24.64263 -1.0963,36.29692 2.9694,7.24291 12.1028,25.33766 15.8997,31.5 l 2.4647,4 -0.1985,-5.7109 c -0.1091,-3.14099 0.092,-5.61599 0.4466,-5.5 0.3547,0.116 1.6029,-0.65597 2.7736,-1.71547 1.2688,-1.1482 2.4673,-1.55216 2.9671,-1 0.4611,0.5095 1.8016,4.97637 2.9788,9.92637 1.1773,4.95 3.3276,11.25 4.7785,14 1.451,2.75 3.2226,7.25 3.9369,10 0.7144,2.75 1.6222,6.08357 2.0174,7.40793 0.6298,2.11049 0.452,2.33823 -1.4394,1.84362 -1.1869,-0.31037 -2.1579,-0.11778 -2.1579,0.42798 0,0.54576 -2.7623,3.712 -6.1384,7.03609 -6.6256,6.52353 -16.4317,11.80308 -29.3616,15.8081 -10.6655,3.30362 -11.6625,3.82521 -7.5,3.92391 4.0564,0.0962 6.5391,1.37097 5.6071,2.879 -0.4074,0.65917 -6.1561,1.03983 -15.4388,1.02229 -17.1364,-0.0324 -21.9173,0.97148 -26.6871,5.60357 -4.3769,4.25058 -5.4812,7.19464 -5.4812,14.61261 0,5.31616 0.2136,5.9349 2.0496,5.9349 4.3302,0 12.9504,6.88013 12.9504,10.33618 0,0.6505 0.9,1.74479 2,2.43175 1.1,0.68696 2,1.9202 2,2.74054 0,0.82034 0.1802,1.49153 0.4004,1.49153 2.4955,0 22.4678,-7.41789 24.8913,-9.24486 1.7645,-1.33022 6.3583,-4.13344 10.2083,-6.22938 3.85,-2.09594 9.25,-5.23588 12,-6.97764 2.75,-1.74176 8.825,-5.01162 13.5,-7.26636 4.675,-2.25473 10.3,-5.53163 12.5,-7.282 2.2,-1.75038 6.5328,-4.74657 9.6284,-6.65822 l 5.6284,-3.47573 0.6787,-6.18291 c 0.761,-6.93194 4.0094,-14.6829 6.1537,-14.6829 1.8747,0 1.7843,0.84453 -0.5892,5.5 -1.447,2.83806 -2,5.89718 -2,11.06222 0,8.08714 1.201,12.4895 4.689,17.18778 1.9011,2.56085 3.1367,3.25 5.8267,3.25 2.3369,0 3.7364,-0.60259 4.4362,-1.9102 0.5623,-1.05061 2.3781,-3.266 4.0352,-4.92308 3.6931,-3.69314 3.7939,-6.27617 0.4175,-10.70282 -3.5245,-4.62089 -6.4046,-14.3656 -6.4046,-21.66963 0,-5.76277 0.099,-6.00105 2.25,-5.42456 1.2375,0.33164 2.7904,0.60913 3.451,0.61664 1.6854,0.0192 7.9352,11.71996 8.7566,16.39406 0.3751,2.13422 1.7812,5.62172 3.1247,7.75 2.2527,3.56855 2.797,3.86959 6.996,3.86959 2.5042,0 5.4417,0.47552 6.5276,1.05671 1.5359,0.82198 2.7048,0.60532 5.2626,-0.97544 4.1601,-2.57113 5.6324,-5.80948 5.6277,-12.37832 0,-6.3097 -2.3547,-10.58574 -7.9426,-14.45125 -2.1877,-1.51344 -3.9948,-3.3142 -4.0157,-4.0017 -0.1526,-5.02788 14.1166,7.62401 15.451,13.69974 0.9235,4.20446 -0.2172,11.87885 -2.2369,15.05026 -1.9679,3.08988 -3.8238,4.49829 -12.1703,9.23568 -13.7603,7.81016 -21.8418,10.78163 -31.3067,11.51114 -6.5696,0.50635 -6.7947,0.44366 -9.7442,-2.71385 -1.6607,-1.77769 -3.8025,-5.43735 -4.7598,-8.13257 -0.9573,-2.69522 -2.0139,-4.9004 -2.348,-4.9004 -0.3341,0 -4.8126,3.18384 -9.952,7.0752 -5.1395,3.89136 -13.648,9.20239 -18.9078,11.80228 -10.4182,5.14969 -28.3337,15.26016 -34.3418,19.3805 -4.7707,3.27181 -21.9358,8.7606 -27.2214,8.70444 -2.2,-0.0234 -5.35,-0.76509 -7,-1.64827 z m 46.5936,-58.41051 c 5.5719,-2.14876 8.2839,-3.75545 8.8617,-5.25 0.4578,-1.1845 2.048,-3.27864 3.5336,-4.65364 1.4856,-1.375 3.3333,-3.71515 4.1061,-5.20034 1.9204,-3.69105 1.8516,-13.18408 -0.1074,-14.80989 -1.0832,-0.89898 -1.2152,-1.61305 -0.4654,-2.5165 0.7408,-0.89264 0.6678,-1.65777 -0.2497,-2.61732 -1.3383,-1.39961 -6.7463,-9.86349 -13.0116,-20.36394 -1.9716,-3.30439 -5.9993,-11.40439 -8.9503,-18 -5.5473,-12.3979 -7.2779,-14.16765 -10.6028,-10.84269 -1.7308,1.73081 -2.8804,0.84449 -3.4362,-2.64932 -0.2971,-1.86746 -0.5981,-1.31244 -1.1898,2.19363 -0.6862,4.06652 -1.1687,4.77635 -3.611,5.31277 -1.961,0.43071 -3.1385,1.53594 -3.869,3.63138 -1.2759,3.6601 -3.5216,2.82749 -2.6888,-0.99687 0.4927,-2.26219 0.297,-2.139 -1.3645,0.85909 -3.7421,6.75236 -4.0485,8.21991 -4.0485,19.38888 0,18.95734 4.3981,38.2001 10.5851,46.31157 2.8507,3.73755 8.2056,6.79447 13.7114,7.82735 3.0438,0.57102 3.7035,1.12027 3.7035,3.08349 0,1.31379 0.2395,2.38871 0.5322,2.38871 0.2928,0 4.1454,-1.39336 8.5614,-3.09636 z m 48.9064,17.09636 c 0,-0.55 0.45,-1 1,-1 0.55,0 1,0.45 1,1 0,0.55 -0.45,1 -1,1 -0.55,0 -1,-0.45 -1,-1 z m 478,-2.93513 c -7.5707,-2.31124 -28.2897,-15.22654 -37.1158,-23.13635 -3.9453,-3.53569 -11.4957,-10.36039 -16.7787,-15.16602 -9.628,-8.75791 -12.6163,-10.27567 -13.8068,-7.0125 -1.6005,4.387 -7.4943,12.29979 -10.206,13.70203 -5.4357,2.81091 -23.2927,1.12359 -31.0094,-2.93009 -2.7711,-1.45576 -8.7407,-7.45687 -11.434,-11.49445 -3.9823,-5.96984 -1.3602,-13.42611 8.2191,-23.3723 3.7901,-3.93535 7.1673,-8.05519 7.5049,-9.15519 0.3375,-1.1 2.9432,-4.42501 5.7905,-7.3889 4.7584,-4.95346 5.0337,-5.49351 3.4063,-6.68347 -0.9737,-0.71201 -1.5417,-1.66458 -1.2622,-2.11683 0.6295,-1.01861 -1.9345,-11.74694 -3.7787,-15.8108 -0.7487,-1.65 -1.8476,-4.8 -2.442,-7 -1.9192,-7.10467 -1.929,-7.10947 -12.5872,-6.18684 -2.2,0.19044 -6.3524,1.13069 -9.2276,2.08945 -2.8751,0.95876 -5.6657,1.47236 -6.2013,1.14133 -0.5357,-0.33103 -6.5083,-0.74433 -13.2725,-0.91845 -6.7643,-0.17412 -11.1736,-0.14761 -9.7986,0.0589 5.5877,0.83928 7.0604,1.40881 6.4011,2.47552 -0.4668,0.75538 -2.914,0.85781 -7.7909,0.3261 -3.9106,-0.42635 -11.1323,-0.72122 -16.0481,-0.65527 -5.8814,0.0789 -11.5239,-0.5366 -16.5,-1.7999 -5.1031,-1.29552 -6.9931,-1.49554 -5.8121,-0.61509 0.9625,0.71759 1.75,1.52668 1.75,1.79798 0,0.27129 -3.4875,-0.058 -7.75,-0.73184 -5.1549,-0.81487 -7.9652,-0.88792 -8.3927,-0.21816 -0.3535,0.55382 -1.7884,0.71939 -3.1887,0.36793 -1.4003,-0.35146 -2.7893,-0.24549 -3.0865,0.23549 -0.4749,0.76831 -5.2455,2.28338 -8.0901,2.56926 -0.5544,0.0557 -2.6325,1.10532 -4.6181,2.33244 -4.4759,2.76629 -5.747,2.85336 -3.3739,0.23113 2.8225,-3.11888 0.9053,-2.36614 -4.7929,1.8818 -7.3639,5.48966 -24.7071,13.11955 -24.7071,10.86954 0,-0.27427 2.8204,-1.84593 6.2676,-3.49256 3.4472,-1.64663 6.9071,-3.76443 7.6887,-4.7062 1.6284,-1.96203 2.1121,-2.15246 -12.9563,5.10082 -11.0928,5.33955 -26.6931,10.66015 -29.2759,9.98473 -1.1216,-0.2933 -3.5912,0.11515 -5.4879,0.90767 -1.8968,0.79252 -3.8065,1.21984 -4.2437,0.94961 -0.4372,-0.27024 -3.7947,0.43517 -7.461,1.56757 -9.1034,2.81176 -10.4246,1.81727 -2.5315,-1.90548 8.6349,-4.07266 4.7296,-4.14134 -7.9507,-0.13982 -10.3725,3.27324 -13.0134,3.69654 -8.7993,1.41037 1.5125,-0.82055 2.7484,-1.59003 2.7464,-1.70997 -0.01,-0.53938 -23.9686,-0.0906 -27.9964,0.52444 -2.475,0.3779 -3.3796,0.34621 -2.0101,-0.0704 3.7337,-1.13589 1.2901,-2.12297 -9.2716,-3.74517 -23.9679,-3.68128 -25.741,-4.26745 -33.2183,-10.98182 -4.0659,-3.65104 -3.795,-3.83001 2.5,-1.65155 1.6965,0.5871 -2.0533,-2.47004 -6.3425,-5.17096 -1.5634,-0.98446 -4.7134,-1.97713 -7,-2.20595 -6.1741,-0.61782 -8.967,-1.10164 -10.8308,-1.8763 -1.1588,-0.48161 -2.0467,0.002 -2.8874,1.57305 l -1.2141,2.26851 -2.1779,-2.53203 -2.178,-2.53203 0.065,7.09108 c 0.057,6.16213 -0.1639,7.07289 -1.6847,6.95219 -0.9625,-0.0764 -1.75,-0.003 -1.75,0.16377 0,0.16646 1.3855,3.00963 3.0788,6.31815 3.7855,7.39631 18.6425,22.13957 27.6017,27.39042 l 6.1595,3.60997 11.33,-0.54787 c 14.6702,-0.70939 24.1199,0.79791 34.4952,5.50223 6.5376,2.96424 8.4811,4.35682 9.75,6.98615 1.7888,3.70655 2.0636,9.82674 0.6125,13.6433 -2.5007,6.57732 -14.5079,16.42628 -25.1304,20.61327 l -5.2342,2.06313 -12.5815,-2.09759 c -6.9199,-1.15369 -17.5315,-2.41451 -23.5815,-2.80183 -11.4672,-0.73413 -14.3082,-2.31056 -5.7746,-3.20422 4.8897,-0.51206 21.4943,1.01495 31.8471,2.92877 3.1871,0.58918 7.3996,1.06528 9.3611,1.05801 4.4621,-0.0165 16.2127,-6.40765 21.0664,-11.45791 3.4768,-3.61759 3.5,-3.70206 3.5,-12.74175 l 0,-9.10002 -6.9718,-3.34355 c -11.6579,-5.5909 -22.0455,-4.18815 -35.4953,4.79331 -6.3892,4.26652 -9.8408,4.41638 -5.9338,0.25764 1.4376,-1.53028 1.7697,-2.3945 0.9202,-2.3945 -0.9636,0 -0.8508,-0.52877 0.4099,-1.92178 1.9851,-2.19358 3.0796,-1.23234 -10.4292,-9.16009 -10.9266,-6.41231 -23.8817,-19.23178 -28.5117,-28.213 -2.0429,-3.96282 -4.5048,-8.33013 -5.4708,-9.70513 -2.9659,-4.22169 -5.7726,-10.31985 -8.0869,-17.57074 -5.9844,-18.74946 -17.4115,-32.71414 -34.1168,-41.693 -6.3292,-3.40183 -7.9497,-4.70743 -7.2493,-5.84063 0.7199,-1.1648 6.3767,1.25567 14.7937,6.32999 4.4796,2.70064 8.9454,6.58655 12.8765,11.20449 3.31,3.88844 6.4342,7.51989 6.9425,8.06989 0.5084,0.55 -1.7258,-4.625 -4.965,-11.5 -4.697,-9.9695 -6.4787,-12.78063 -8.8007,-13.88624 -3.0258,-1.44066 -10.1902,-6.85506 -14.2646,-10.78028 -1.2942,-1.2468 -4.8887,-3.21563 -7.9879,-4.37516 -7.4893,-2.80212 -8.8729,-3.96318 -6.6551,-5.58483 1.5572,-1.1387 1.5263,-1.3672 -0.4097,-3.02486 -2.5251,-2.16203 -2.6766,-3.34863 -0.4276,-3.34863 0.9167,0 1.3706,-0.2961 1.0087,-0.65799 -0.3619,-0.3619 -0.1922,-1.21921 0.3771,-1.90515 0.9764,-1.17657 2.1919,-9.94951 2.1388,-15.43686 -0.013,-1.375 0.627,-3.22578 1.4231,-4.11285 0.7961,-0.88707 1.694,-4.03707 1.9955,-7 0.3014,-2.96293 0.9461,-6.28715 1.4325,-7.38715 0.4865,-1.1 1.7306,-4.7 2.7646,-8 1.5534,-4.95761 2.2981,-6.04974 4.2866,-6.2863 3.4585,-0.41147 4.9871,2.52349 3.8552,7.40244 -1.255,5.40971 -1.1707,28.297 0.1337,36.26856 2.3817,14.55628 2.3839,14.56039 14.4445,26.621 6.1459,6.14585 15.404,14.39054 20.5737,18.32155 5.1696,3.931 14.3494,11.45966 20.3994,16.73034 6.05,5.27069 12.9125,10.47248 15.25,11.55953 2.3375,1.08706 4.25,2.63675 4.25,3.44377 0,0.80702 1.4625,2.80889 3.25,4.4486 10.1478,9.30888 21.6204,13.63293 53.75,20.25852 8.1856,1.68799 14.0266,2.16777 26.5,2.17667 l 16,0.0114 8,-3.59654 c 16.2046,-7.28509 28.6917,-11.82311 32.5934,-11.84501 5.2553,-0.0295 18.9338,-5.7696 27.1775,-11.40492 2.074,-1.41777 6.799,-4.19899 10.5,-6.18047 3.701,-1.98148 7.9779,-4.35115 9.5042,-5.26593 1.9285,-1.15583 2.9962,-1.32886 3.5,-0.5672 0.3987,0.60281 2.0749,1.42075 3.7249,1.81764 1.65,0.39689 7.05,2.44041 12,4.54116 4.95,2.10074 11.925,4.57416 15.5,5.49647 3.575,0.92231 8.3,2.21058 10.5,2.86281 2.3323,0.69147 10.4622,1.18589 19.5,1.18589 8.525,0 15.8009,0.41747 16.1688,0.92772 0.7748,1.07461 14.4071,-2.66056 19.8561,-5.44046 3.999,-2.0401 9.5111,-7.8714 12.2684,-12.97868 2.6187,-4.85043 4.1914,-2.59959 2.1386,3.06079 -3.1311,8.63409 -2.8706,28.05531 0.5361,39.97682 1.4943,5.22906 3.1142,6.93061 7.2344,7.59923 3.1955,0.51857 4.5133,0.0417 9.7354,-3.52284 3.3217,-2.26742 6.4946,-4.12258 7.0509,-4.12258 0.6032,0 1.0113,-3.46379 1.0113,-8.58333 0,-6.32611 0.3219,-8.47602 1.2243,-8.17524 0.6733,0.22446 1.5985,1.94946 2.0559,3.83334 0.4575,1.88387 1.0828,4.43145 1.3897,5.66127 2.07,8.29636 -4.1969,15.04014 -27.2281,29.29999 -26.8604,16.63067 -31.6,24.02363 -22.7989,35.56243 l 2.6404,3.46179 5.1467,-5.53012 c 5.0526,-5.4291 7.518,-6.48882 10.57,-4.54328 1.2226,0.7794 1.2708,1.28507 0.2604,2.73468 -2.3694,3.39966 -5.2604,9.207 -5.2604,10.5669 0,1.67971 8.2351,3.71159 15.0429,3.71159 4.2658,0 5.3423,-0.45193 8.4286,-3.53824 1.9461,-1.94604 4.843,-6.10854 6.4376,-9.25 1.8624,-3.66895 6.6711,-9.57629 13.4453,-16.51706 5.8002,-5.94292 10.8236,-11.68042 11.1631,-12.75 0.3395,-1.06959 1.3107,-1.9447 2.1583,-1.9447 3.0387,0 0.2895,5.40825 -5.9884,11.78005 -6.126,6.21768 -6.1721,6.30705 -4.6469,9 1.1799,2.08313 1.3023,3.38657 0.5228,5.5672 -0.8548,2.39112 -0.7018,3.0783 0.9546,4.28949 1.5739,1.15092 1.6985,1.61146 0.6167,2.28004 -1.4103,0.87164 -0.8554,1.45159 17.1057,17.87676 7.2149,6.59787 20.7951,15.46014 32.1025,20.94965 5.7784,2.80532 16.4985,2.98024 15.7387,0.25681 -0.2302,-0.825 -0.6802,-3.6943 -1,-6.37621 -0.5559,-4.66109 -0.8104,-4.99828 -5.7699,-7.64312 -8.0689,-4.3031 -15.9937,-10.95556 -20.2283,-16.98067 -4.3768,-6.22737 -8.0833,-9.94085 -8.0833,-8.09845 0,1.49794 -5.1904,-1.41287 -8.167,-4.58007 -3.5136,-3.73872 -1.5749,-4.57733 2.9274,-1.26627 6.4803,4.76565 5.0436,2.68039 -1.7604,-2.55521 -3.3,-2.53929 -6,-5.35559 -6,-6.25845 0,-1.27676 0.2666,-1.37488 1.2,-0.44155 1.8527,1.85272 2.295,1.46841 2.3596,-2.05 0.033,-1.7875 0.4071,-4.15 0.8316,-5.25 0.4246,-1.1 -0.044,-0.7625 -1.0412,0.75 -2.9439,4.46477 -4.56,2.82518 -2.4177,-2.45295 0.5127,-1.26338 1.6993,-4.88455 2.6369,-8.04705 1.2676,-4.27622 2.1722,-5.75 3.5291,-5.75 1.9369,0 2.8229,-2.42016 5.4831,-14.97791 2.5156,-11.87506 1.5741,-14.06136 -18.5267,-43.02209 -10.8584,-15.64442 -20.0794,-26.14829 -26.7414,-30.46189 -6.3776,-4.12937 -13.4571,-12.61282 -19.4431,-23.29886 -3.1247,-5.57809 -4.5236,-6.98479 -10.0537,-10.10949 -3.5332,-1.99637 -7.7772,-4.61234 -9.4312,-5.81327 -1.654,-1.20093 -4.2174,-2.48722 -5.6963,-2.85841 -1.479,-0.37119 -2.689,-1.24043 -2.689,-1.93163 0,-0.6912 -0.9327,-2.44242 -2.0726,-3.89159 -1.9388,-2.46476 -1.9549,-2.63996 -0.25,-2.71381 1.2369,-0.0536 0.939,-0.40167 -0.9274,-1.08333 -2.7862,-1.01758 -3.752,-4.10045 -1.6849,-5.37798 0.7101,-0.43886 0.5623,-1.21393 -0.4434,-2.32517 -0.8296,-0.91678 -1.9874,-3.90961 -2.5727,-6.65072 -0.5854,-2.74112 -1.3224,-6.10793 -1.6379,-7.4818 -0.3156,-1.37387 -0.2441,-2.16837 0.1587,-1.76554 0.4028,0.40282 1.2727,-0.007 1.9331,-0.90964 1.0433,-1.42676 1.5705,-0.96269 4.0209,3.53967 1.9411,3.56643 3.6239,5.3778 5.3982,5.81071 3.5708,0.87121 12.8061,6.79602 17.4202,11.17569 5.8481,5.55098 9.6066,11.53265 15.1723,24.14706 6.4913,14.71205 9.2755,20 10.5305,20 0.5525,0 1.424,1.10345 1.9368,2.4521 0.5127,1.34866 2.294,3.15628 3.9583,4.01693 1.6643,0.86065 3.6716,2.81322 4.4606,4.33905 0.7891,1.52582 4.7342,5.54197 8.7669,8.92477 9.3653,7.85582 17.364,17.80681 24.9434,31.03154 4.0239,7.02077 8.889,21.43506 8.889,26.33596 0,2.87999 0.4509,4.89965 1.0938,4.89965 0.7278,0 0.8804,1.58961 0.456,4.75 -0.4181,3.11411 -0.1098,6.47199 0.8954,9.75 1.9047,6.21178 1.9154,6.85237 0.1031,6.15692 -1.2084,-0.46371 -1.4343,0.98452 -1.3481,8.64301 0.057,5.06004 0.5977,9.83575 1.2016,10.61269 0.8118,1.04429 0.7722,1.52232 -0.1518,1.83333 -1.7646,0.59389 -1.5561,5.75514 0.2944,7.29095 0.9972,0.82757 1.3477,2.1998 0.9892,3.87244 -0.4537,2.1166 0.4531,3.71792 4.9555,8.75099 3.031,3.38817 5.5109,6.58947 5.5109,7.11399 0,1.17021 7.1489,6.22568 8.8037,6.22568 0.658,0 1.1963,0.60666 1.1963,1.34813 0,0.74146 1.8488,2.18183 4.1085,3.20081 4.7198,2.12833 6.461,4.40503 7.4319,9.71773 0.9386,5.13549 -0.942,9.32906 -4.7841,10.66843 -3.4582,1.20552 -9.0464,1.26237 -12.7563,0.12977 z M 397.2845,586.31498 c -6.854,-2.35813 -8.9751,-3.70208 -15.25,-9.66265 -4.0088,-3.80795 -7.2887,-7.46184 -7.2887,-8.11976 0,-0.65791 -2.5798,-3.83849 -5.7328,-7.06795 -3.1531,-3.22946 -5.7406,-6.46052 -5.75,-7.18012 -0.01,-0.7196 -2.0422,-3.06822 -4.5172,-5.21915 -3.2532,-2.8272 -4.2014,-4.2193 -3.4224,-5.02422 0.7859,-0.81195 2.0761,-0.32003 4.7649,1.81674 3.7579,2.98642 8.0494,3.31015 6.9813,0.52663 -0.321,-0.83648 0.097,-1.40146 1.0376,-1.40146 0.8665,0 5.8841,4.8375 11.1503,10.75 6.9204,7.76983 10.6668,12.99971 13.514,18.86512 3.8135,7.85634 4.0912,8.15929 8.7067,9.5 5.0369,1.46311 20.8727,1.82442 25.5176,0.58222 2.0488,-0.54794 2.75,-0.37544 2.75,0.67662 0,2.17865 -2.6286,2.79113 -14,3.26215 -9.489,0.39305 -11.2666,0.17119 -18.4613,-2.30417 z m -8.5062,-11.77934 c -2.993,-4.84266 -3.6975,-4.5081 -0.9187,0.43621 1.233,2.19385 2.4382,3.79252 2.6781,3.5526 0.2399,-0.23992 -0.5518,-2.03488 -1.7594,-3.98881 z M 295.7458,458.59776 c 0,-2.74645 -0.3402,-3.42142 -1.5,-2.97635 -2.0172,0.77406 -2.0222,-5.64852 -0.011,-13.97424 0.819,-3.39027 2.174,-10.61088 3.0112,-16.0458 0.8372,-5.43493 2.6812,-13.08493 4.0979,-17 1.4166,-3.91508 4.1395,-11.84333 6.0508,-17.61833 2.8566,-8.63085 4.1317,-11.08463 7.1631,-13.78419 5.2577,-4.68212 7.3802,-5.38459 9.0536,-2.99637 1.0049,1.43418 1.071,2.24386 0.25,3.06483 -0.6136,0.61365 -1.1287,1.81323 -1.1445,2.66573 -0.016,0.8525 -2.2659,3.93151 -5,6.84224 -4.92,5.23767 -6.774,8.14927 -3.0342,4.76479 2.9584,-2.67735 4.4851,-0.95864 2.1106,2.37605 -1.0937,1.53597 -1.7409,3.04034 -1.4382,3.34303 0.3027,0.3027 -0.2731,1.80712 -1.2795,3.34315 -1.0065,1.53603 -1.735,3.03757 -1.6189,3.33676 0.116,0.29919 -1.5312,4.14398 -3.6604,8.54398 -4.9205,10.16797 -6.5673,15.38329 -5.268,16.68266 0.6453,0.64529 0.4712,2.93443 -0.5058,6.65065 -0.8194,3.11668 -2.2294,10.13157 -3.1333,15.58866 -0.9555,5.76826 -2.1668,10.09417 -2.8935,10.33333 -0.8426,0.27729 -1.25,-0.74629 -1.25,-3.14058 z m 196.5,-25.77276 c -2.2,-0.39969 -6.9559,-0.75263 -10.5685,-0.78433 -3.6127,-0.0317 -8.7877,-0.70803 -11.5,-1.50297 -2.7124,-0.79493 -7.9995,-1.97143 -11.7492,-2.61443 -4.129,-0.70806 -7.4967,-1.89799 -8.5396,-3.01737 -0.947,-1.01655 -6.6541,-3.49927 -12.6823,-5.51716 -6.0282,-2.01789 -11.6354,-4.06831 -12.4604,-4.55649 -0.825,-0.48819 -3.4709,-2.11647 -5.8798,-3.61841 -2.4089,-1.50194 -8.0339,-4.90767 -12.5,-7.5683 -4.4661,-2.66062 -13.9702,-9.19933 -21.1202,-14.53047 -7.15,-5.33114 -14.9602,-10.95469 -17.3559,-12.49677 -6.0571,-3.89882 -29.0552,-23.60027 -38.1179,-32.65398 -5.8453,-5.83946 -8.6871,-9.75338 -12.7238,-17.52416 l -5.1975,-10.00543 -0.5366,-13.47585 c -0.8388,-21.06141 -0.8644,-43.70032 -0.06,-52.64133 0.6886,-7.65146 0.6013,-8.2489 -1.3869,-9.49055 -1.1669,-0.72878 -2.1217,-2.11681 -2.1217,-3.08451 0,-0.9677 -0.6437,-1.75945 -1.4305,-1.75945 -0.7867,0 -1.5742,-0.99333 -1.75,-2.2074 -0.3806,-2.6295 -6.8183,-7.33353 -12.0562,-8.80955 -2.0552,-0.57914 -8.7078,-1.0575 -14.7835,-1.06303 -9.8507,-0.009 -11.0161,-0.19467 -10.7633,-1.71504 0.2005,-1.20576 -0.5217,-1.79763 -2.4665,-2.0214 -1.5382,-0.17698 -2.75,-0.93267 -2.75,-1.71482 0,-1.76157 -3.1141,-3.46876 -6.3273,-3.46876 -4.6531,0 -3.9717,-2.83905 2.1329,-8.88703 10.3486,-10.25268 17.8186,-14.3792 32.9001,-18.17439 7.9429,-1.9988 10.4884,-2.16199 26.2943,-1.68572 9.625,0.29002 19.525,0.1831 22,-0.23761 2.475,-0.4207 4.1074,-0.82124 3.6275,-0.89008 -0.4798,-0.0688 -0.3122,-0.80017 0.3725,-1.62517 0.6847,-0.825 0.8216,-1.5 0.3042,-1.5 -1.6259,0 -9.3042,-6.366 -9.3042,-7.71399 0,-0.7073 -0.675,-1.286 -1.5,-1.286 -0.825,0 -1.5,-0.675 -1.5,-1.5 0,-0.825 0.6932,-1.5 1.5405,-1.5 0.8472,0 2.909,-1.0125 4.5817,-2.25 2.7069,-2.00268 4.2139,-2.25 13.7095,-2.25 5.8675,0 12.2143,0.34297 14.104,0.76214 l 3.4357,0.76215 -2.2805,-2.42754 c -1.2543,-1.33514 -3.3629,-2.69918 -4.6858,-3.03119 -2.4068,-0.60408 -3.1415,-1.99241 -1.5688,-2.96442 0.46,-0.28429 3.61,0.3229 7,1.34931 l 6.1637,1.8662 0,-3.40832 c 0,-2.59148 0.4194,-3.40071 1.75,-3.37653 2.6027,0.0473 4.8015,2.03889 10.6214,9.62043 l 5.2565,6.84777 8.8168,-0.35729 c 4.8491,-0.19651 10.2204,-0.80672 11.936,-1.35603 3.6219,-1.15967 23.6491,-2.56034 48.6193,-3.40037 l 17.5,-0.58872 14.0937,4.10121 c 20.1146,5.85325 26.054,5.75044 44.9063,-0.77736 20.8316,-7.21317 29.3841,-8.47701 52.2077,-7.71492 29.5084,0.9853 30.0526,1.0506 41.605,4.99173 l 10.8128,3.68879 6.6872,-2.62071 c 3.678,-1.44138 9.2301,-4.16097 12.338,-6.04352 3.1079,-1.88254 6.4976,-3.42281 7.5327,-3.42281 1.7035,0 1.8439,0.67299 1.4808,7.09856 -0.3995,7.07016 -0.3922,7.09381 1.8178,5.91106 1.2203,-0.65312 6.1111,-1.78573 10.8684,-2.51691 4.7573,-0.73118 10.6369,-1.66064 13.0658,-2.06546 3.8338,-0.63896 4.3341,-0.52206 3.7937,0.88633 -0.3424,0.89231 -0.1922,1.88834 0.3337,2.21341 1.5868,0.98066 1.0877,2.29106 -1.3971,3.66844 -4.9326,2.73427 -15.1779,11.08039 -15.8763,12.93326 -0.568,1.50704 -0.1517,2.15595 1.8782,2.92774 7.3486,2.79393 22.3276,5.02329 39.8594,5.93234 10.4457,0.54163 20.0047,1.26822 21.2422,1.61464 1.366,0.3824 2.25,0.19115 2.25,-0.48679 0,-1.86775 1.9355,-1.27899 7.9018,2.40367 3.583,2.21152 7.8754,3.87381 11.5456,4.47115 11.6821,1.9013 15.7577,3.64678 21.3026,9.12325 6.7569,6.67363 6.8654,8.9049 0.6251,12.86235 -7.0043,4.44203 -13.2663,5.29478 -40.3751,5.49834 -13.475,0.10118 -25.2731,0.52821 -26.2179,0.94895 -1.4037,0.62509 -1.6093,1.61642 -1.1241,5.42033 0.8282,6.49326 5.189,25.00105 6.4427,27.34347 0.6437,1.20282 0.6864,2.39029 0.1124,3.12578 -0.5395,0.69119 -0.6061,4.37892 -0.1597,8.83819 1.4309,14.29403 1.5017,24.33738 0.1726,24.47289 -0.6743,0.0688 -1.905,0.18125 -2.7348,0.25 -1.2329,0.10215 -1.3905,1.13058 -0.8623,5.625 0.413,3.51414 0.2758,5.5 -0.38,5.5 -0.5645,0 -1.338,1.6875 -1.7189,3.75 -1.033,5.59359 -5.6441,14.60177 -12.9251,25.25 -3.5727,5.225 -9.3833,13.79468 -12.9126,19.04373 -3.5292,5.24905 -8.6163,11.49895 -11.3046,13.88865 -5.2325,4.65139 -17.7427,11.18412 -21.8743,11.42262 -1.3816,0.0797 -2.5123,0.50906 -2.5127,0.95402 -4e-4,0.44496 -0.3762,0.57695 -0.8352,0.29331 -1.396,-0.86282 -15.3544,4.30433 -18.8688,6.98493 -3.5652,2.71931 -4.3628,2.26219 -1.5467,-0.88652 0.9631,-1.07695 -1.198,-0.15875 -4.8067,2.04217 -7.3781,4.49986 -21.3177,11.66914 -30.6933,15.7859 -3.4375,1.50937 -6.25,3.06373 -6.25,3.45413 0,1.1634 -18.6181,7.67004 -31.5,11.00861 -6.6,1.7105 -12.9,3.51545 -14,4.01099 -1.1,0.49555 -4.25,1.0952 -7,1.33256 -2.75,0.23736 -6.8,0.89239 -9,1.45561 -4.9072,1.25628 -37.4873,2.05278 -43,1.05125 z m 41.7434,-10.4161 c 7.2911,-1.41578 18.4316,-4.30047 24.7566,-6.41042 6.325,-2.10995 13.975,-4.5921 17,-5.51588 3.025,-0.92379 9.325,-3.59989 14,-5.94689 4.675,-2.34701 13.1087,-5.95509 18.7415,-8.01795 11.8878,-4.35355 17.9409,-8.07762 23.0352,-14.17199 4.4185,-5.2859 7.8054,-6.18757 5.2406,-1.39514 -1.668,3.11664 2.7369,1.25335 9.7924,-4.14228 3.4704,-2.65392 6.9094,-4.82531 7.6423,-4.82531 1.6643,0 10.2414,-9.21408 20.074,-21.56497 6.7109,-8.42964 9.4816,-10.97061 9.4702,-8.68503 0,0.4125 -0.9065,2.23072 -2.0099,4.0405 l -2.0062,3.2905 2.1306,-1.14027 c 2.3414,-1.25305 2.0271,-0.11984 -0.9178,3.30927 -1.6772,1.95294 -0.2756,2.43263 1.6071,0.55 1.8387,-1.8387 1.4257,0.29307 -0.4606,2.37739 -2.393,2.64425 -1.0546,3.24382 2.796,1.25259 l 3.3212,-1.7175 -2.7588,3.61705 -2.7589,3.61705 2.5305,0.63512 c 3.3719,0.84628 3.1902,2.02581 -0.6151,3.9936 -2.416,1.2494 -2.8219,1.82863 -1.75,2.49749 1.1225,0.70041 0.9553,1.18099 -0.8543,2.45572 -1.2375,0.87169 -2.25,2.12092 -2.25,2.77605 0,2.10239 8.8314,-8.20891 16.2759,-19.00325 16.1225,-23.37715 20.0148,-30.41666 21.9687,-39.73167 1.1087,-5.28586 1.0346,-6.04773 -0.915,-9.41057 -2.2854,-3.94188 -5.4521,-6.59524 -9.1493,-7.66617 -5.8322,-1.68934 -15.2334,15.61917 -13.8967,25.58517 0.5791,4.31723 -0.3749,5.72178 -2.306,3.39503 -1.9992,-2.40889 -0.6528,-13.21863 2.5298,-20.31026 3.1451,-7.00822 9.3061,-13.28613 14.8267,-15.1081 3.9501,-1.30366 8.7433,-0.35614 13.5738,2.68327 l 2.408,1.51512 -0.6456,-8.37197 c -0.9443,-12.24603 -9.8253,-40.07008 -12.6459,-39.61977 -1.024,0.16347 -1.5145,-0.66767 -1.5578,-2.63949 -0.041,-1.87164 -1.0589,-3.73463 -2.9107,-5.32746 -2.1277,-1.83014 -2.9222,-3.49638 -3.1426,-6.59077 -0.1622,-2.27776 0.2409,-4.78849 0.8959,-5.57939 1.0127,-1.22294 0.6416,-1.33517 -2.4813,-0.75045 -2.1244,0.39777 -3.9293,0.2711 -4.2827,-0.30056 -1.0268,-1.66147 5.0683,-4.07327 10.294,-4.07327 4.0896,0 4.9147,-0.30082 4.7997,-1.75 -0.2059,-2.59326 6.7392,-1.77495 12.2611,1.44468 7.2765,4.24262 13.2177,5.28054 30.3007,5.29345 15.9516,0.0121 23.908,-1.00919 29.2891,-3.75943 l 2.9898,-1.52808 -2.9369,-2.10031 c -1.6153,-1.15517 -3.8607,-3.04436 -4.9898,-4.1982 -2.7379,-2.79783 -5.248,-4.0016 -10.0529,-4.82098 -6.3046,-1.07512 -19.414,-5.43592 -26.2427,-8.72957 -5.1229,-2.47089 -7.9546,-3.11311 -15.7871,-3.5804 -6.8693,-0.40984 -10.226,-0.20464 -11.9764,0.73213 -5.4542,2.91898 -45.3437,-2.65864 -44.7196,-6.253 0.1802,-1.03805 -0.9575,-1.9857 -3.3201,-2.76541 -1.9768,-0.65241 -3.8358,-1.8159 -4.1311,-2.58554 -0.8,-2.08457 -2.323,-1.69075 -2.323,0.60066 0,1.40336 -0.6713,2.00407 -2.25,2.01365 -2.9746,0.0181 -6.75,1.05731 -6.75,1.85807 0,0.35116 2.6756,1.67598 5.9459,2.94406 5.0622,1.96291 7.2925,3.76598 15.005,12.13103 6.8462,7.42533 9.9571,11.74638 12.7356,17.68931 3.4332,7.34363 3.7042,8.63004 4.0953,19.44478 0.3026,8.36615 -0.051,13.88563 -1.2746,19.88347 -1.1866,5.81812 -1.3701,8.50235 -0.6131,8.97022 0.7403,0.45753 0.7797,1.7531 0.1252,4.11654 l -0.9551,3.44887 2.0513,-2.75 c 1.1282,-1.5125 2.4637,-2.75 2.9679,-2.75 1.5531,0 1.0175,2.60202 -1.0861,5.27631 -1.1015,1.40031 -1.7344,3.2453 -1.4064,4.09996 0.9176,2.39135 -6.0006,12.90433 -11.3394,17.23137 -2.6133,2.11809 -5.3462,4.42287 -6.073,5.12172 -1.5382,1.47913 -3.1785,1.6679 -3.1785,0.3658 0,-0.49767 -1.8,-0.66342 -4,-0.36833 -3.2516,0.43612 -4,0.23121 -4,-1.09516 0,-0.89742 -0.7443,-1.63167 -1.6539,-1.63167 -3.358,0 -14.0645,-7.02388 -19.6791,-12.9102 -7.198,-7.54638 -12.7553,-18.97779 -15.6115,-32.11323 -1.1719,-5.38896 -2.7353,-9.97642 -3.6246,-10.63541 -2.5718,-1.90576 -4.4109,-11.12806 -4.3554,-21.84116 0.046,-8.80384 0.436,-10.9891 3.2639,-18.26892 3.6952,-9.51269 9.3422,-17.11609 18.4788,-24.88075 7.3209,-6.22167 11.7341,-8.73609 13.8846,-7.91085 1.2281,0.47126 1.2837,0.87186 0.2873,2.07235 -0.6792,0.81849 -1.8051,1.48817 -2.5018,1.48817 -0.6967,0 -2.3291,0.91956 -3.6276,2.04347 -1.992,1.72432 -1.5349,1.64063 2.9268,-0.53585 5.4644,-2.66563 7.4666,-2.57459 6.989,0.31779 -0.2116,1.28125 0.6245,1.7487 3.5597,1.99009 2.1099,0.17353 5.3861,1.18603 7.2804,2.25 4.4928,2.52347 5.063,2.45462 6.7541,-0.8155 0.7822,-1.5125 3.4127,-4.8875 5.8456,-7.5 l 4.4234,-4.74999 -3.3448,0 c -1.8397,0 -5.8299,0.87341 -8.8671,1.94091 l -5.5223,1.9409 -0.9528,-2.506 c -0.524,-1.37831 -0.9527,-3.82671 -0.9527,-5.44091 0,-1.61419 -0.2039,-2.9349 -0.453,-2.9349 -0.9115,0 -6.1148,2.44629 -8.547,4.01832 -1.375,0.88871 -3.6211,1.67836 -4.9912,1.75477 -3.6085,0.20126 -18.1017,7.6257 -23.1688,11.86876 -2.387,1.99882 -7.49,6.00984 -11.34,8.91338 -3.85,2.90355 -9.2099,7.35907 -11.9108,9.90117 -3.1253,2.94145 -5.2586,4.27419 -5.8674,3.66543 -1.328,-1.32801 6.8997,-9.92077 15.6857,-16.38159 3.9009,-2.86851 9.5179,-7.17056 12.4824,-9.56011 l 5.3899,-4.34463 -4.8899,0.69576 c -18.2064,2.59052 -26.1953,4.54882 -32.8899,8.06216 -3.85,2.02048 -8.5807,3.77289 -10.5126,3.89424 -3.3391,0.20974 -16.6373,6.01697 -21.9874,9.60175 -15.7442,10.54917 -19,12.26829 -19,10.03219 0,-2.1499 16.3422,-12.90512 29.1805,-19.20445 3.6743,-1.80286 6.881,-4.04445 7.126,-4.98132 0.245,-0.93687 3.1274,-2.9932 6.4053,-4.56962 3.2779,-1.57642 5.7911,-3.36908 5.5848,-3.98369 -0.3687,-1.09884 4.6194,-3.90938 9.6444,-5.43415 2.446,-0.74217 2.4154,-0.78026 -0.691,-0.86242 -1.7875,-0.0473 -3.25,-0.53595 -3.25,-1.08595 0,-0.55 0.4765,-1 1.059,-1 0.5824,0 0.7994,-0.42 0.4822,-0.93333 -1.0134,-1.63961 -25.167,-1.04704 -36.947,0.90642 -6.3436,1.05196 -16.6965,3.80274 -24.1773,6.42399 -12.3099,4.31331 -13.7579,4.59595 -24.5,4.78243 -7.1335,0.12383 -12.1673,-0.23307 -13.4169,-0.95127 -5.4267,-3.11885 -20.3834,-6.59258 -30.1987,-7.0137 -8.7453,-0.37522 -30.0548,1.21288 -31.1704,2.323 -0.203,0.20197 0.3595,1.09579 1.25,1.98627 2.5864,2.58639 2.0034,4.47618 -1.3809,4.47618 -1.65,0 -3,0.45 -3,1 0,0.55 0.45,1 1,1 0.55,0 1,0.45 1,1 0,0.55 -0.9375,1 -2.0834,1 -3.8109,0 -1.441,2.13373 4.61,4.15044 3.2853,1.09498 10.6984,4.25679 16.4734,7.02624 5.775,2.76945 14.1,6.50832 18.5,8.3086 13.2567,5.42406 21.3827,10.96537 19.2327,13.11531 -0.3831,0.38308 -2.3994,-0.48359 -4.4807,-1.92594 -2.0813,-1.44235 -9.177,-5.05454 -15.7681,-8.0271 -6.5912,-2.97257 -15.8089,-7.1999 -20.4839,-9.39408 -4.675,-2.19419 -10.75,-4.70087 -13.5,-5.57042 -2.75,-0.86954 -11.4337,-3.62895 -19.297,-6.13202 -7.8633,-2.50307 -15.6258,-4.55103 -17.25,-4.55103 -1.6242,0 -2.953,-0.45 -2.953,-1 0,-0.55 -0.7274,-1 -1.6164,-1 -1.1878,0 -0.7239,1.02879 1.75,3.88047 7.5228,8.67172 15.4492,21.93673 13.9837,23.40223 -0.8358,0.83575 -2.9628,-1.89425 -12.2969,-15.7827 -4.9902,-7.42492 -10.474,-12.68174 -13.9768,-13.39814 -1.839,-0.37611 -3.3999,-1.22789 -3.4686,-1.89285 -0.069,-0.66495 -0.1813,-1.63794 -0.25,-2.16221 -0.1474,-1.1237 -9.0684,-5.23233 -10.3984,-4.78901 -0.5024,0.16747 3.2911,4.35224 8.43,9.29947 5.1388,4.94725 10.9184,11.178 12.8434,13.84612 8.4054,11.65029 9.3689,13.56688 9.509,18.91577 0.075,2.84947 0.951,8.73686 1.9476,13.0831 2.1046,9.17883 1.4224,16.82963 -2.9248,32.80228 -5.4478,20.01645 -9.3396,29.43522 -13.9328,33.71978 -1.4295,1.33338 -2.599,2.99075 -2.599,3.68305 0,1.24894 -6.0558,6.49514 -11.1572,9.66567 -1.4614,0.90828 -4.8364,2.18337 -7.5,2.83353 -2.6636,0.65015 -5.3746,1.59678 -6.0246,2.10361 -0.7273,0.56705 -2.6505,0.51368 -5,-0.13876 -2.1,-0.58314 -5.2326,-1.06277 -6.9612,-1.06583 -1.8214,-0.003 -3.3774,-0.61633 -3.7004,-1.45797 -0.6552,-1.7074 -8.6551,-5.54761 -11.5567,-5.54761 -1.6754,0 -0.4784,2.36359 7.1951,14.20674 5.0627,7.81371 10.8203,15.80121 12.7945,17.75 15.6235,15.42202 22.5418,21.45536 29.9105,26.08434 4.675,2.93683 10.075,6.52473 12,7.97311 12.7072,9.56103 48.4314,26.43476 64.7075,30.56352 26.0635,6.61155 72.9569,5.44894 99.7925,-2.47411 27.45,-8.10448 59.4764,-23.16552 73.4765,-34.55377 3.5879,-2.91857 9.0818,-6.93141 12.2087,-8.91743 12.3185,-7.82413 30.6089,-25.04193 37.3421,-35.15233 2.185,-3.28092 4.8116,-6.12403 5.837,-6.31802 1.6668,-0.31536 1.5753,0.1782 -0.8635,4.65901 -5.2766,9.69489 -25.5171,29.76321 -38.0585,37.73479 -3.2683,2.07738 -9.0923,6.34712 -12.9423,9.48832 -21.497,17.5393 -67.1349,36.56439 -99.5,41.47868 -20.1523,3.05989 -61.8621,1.71219 -78.1585,-2.52541 -12.1643,-3.16313 -38.5053,-14.68367 -51.0216,-22.31489 -4.224,-2.5754 -7.9675,-4.68255 -8.3189,-4.68255 -0.3514,0 -4.3204,-2.60316 -8.82,-5.78479 -4.4995,-3.18164 -10.4019,-7.07443 -13.1162,-8.65066 -2.7143,-1.57624 -6.9893,-5.07153 -9.5,-7.76733 -2.5107,-2.6958 -7.4999,-7.32029 -11.0873,-10.27664 -6.7155,-5.53428 -8.8819,-8.28004 -21.2458,-26.92767 -6.712,-10.12317 -7.4833,-10.92792 -10.7317,-11.19699 -8.4827,-0.70263 -12.8065,3.55479 -11.7337,11.55339 1.4231,10.60942 18.3456,35.05069 24.2683,35.05069 3.448,0 3.72,-1.28003 1.4794,-6.9643 -1.1077,-2.81036 -2.014,-5.82491 -2.014,-6.69902 0,-0.8741 -1.35,-4.2459 -3,-7.49288 -1.65,-3.24699 -3,-6.60266 -3,-7.45704 0,-3.40527 2.6416,-0.27379 8.065,9.56063 4.123,7.47631 6.9501,11.32029 10.2509,13.93801 2.5068,1.98803 6.7803,6.3146 9.4967,9.6146 2.7165,3.3 6.2324,7.15768 7.8132,8.57263 4.034,3.61074 19.6708,14.77331 27.1242,19.36299 3.4375,2.11676 6.25,4.36954 6.25,5.00618 0,1.42666 14.0292,10.77526 21.8699,14.57333 6.0335,2.92268 23.2825,8.98487 25.565,8.98487 0.7266,0 1.9385,0.82166 2.6931,1.82591 2.2836,3.03923 14.9176,8.10825 21.9448,8.80473 3.5349,0.35035 7.1022,1.19194 7.9272,1.87019 2.1498,1.76749 8.5421,2.67221 24.5,3.46759 7.7,0.38378 14.1095,0.77289 14.2434,0.86468 0.1339,0.0918 6.2089,-0.99146 13.5,-2.40724 z m -77.342,-63.52443 c -1.8582,-1.85822 -2.0587,-3.0368 -1.75,-10.29075 0.3082,-7.2436 0.747,-8.84936 3.7894,-13.86767 3.2528,-5.36543 5.6315,-7.50397 6.9169,-6.21858 0.3143,0.31432 0.032,1.33741 -0.6272,2.27353 -0.6593,0.93612 -2.3842,3.6326 -3.8332,5.99218 l -2.6344,4.29015 2.6185,5.8349 c 2.9867,6.65511 3.1992,8.08481 1.2019,8.08481 -0.7792,0 -2.0936,-1.9125 -2.9211,-4.25 l -1.5043,-4.25 -0.079,4.17857 c -0.048,2.55584 0.5313,4.78883 1.4924,5.75 3.6321,3.63207 4.8008,1.43806 5.4286,-10.19074 0.2786,-5.16106 0.9428,-9.26792 1.5,-9.27516 1.4752,-0.0192 2.5511,13.9179 1.4104,18.27032 -1.5262,5.82369 -7.0223,7.6551 -11.009,3.66844 z m 104.3308,-1.12986 c -3.921,-1.88992 -6.625,-7.49497 -6.6121,-13.70626 0.024,-11.48488 0.3442,-13.83766 1.9701,-14.46157 2.1839,-0.83803 3.7699,0.25742 2.532,1.74892 -0.5361,0.64603 -0.8378,5.10121 -0.6704,9.90041 0.3275,9.39139 1.7865,13.05303 5.6953,14.29364 3.0744,0.97575 4.8529,-1.82211 4.8529,-7.63425 0,-4.12545 -0.4313,-5.08396 -3.5,-7.77832 -1.925,-1.69017 -3.5,-3.53679 -3.5,-4.10359 0,-1.96175 2.9455,-1.01728 6.4652,2.07304 3.3832,2.97056 3.5348,3.38967 3.5348,9.7775 0,10.06966 -3.5779,13.35601 -10.7678,9.89048 z m -114.7777,-2.22612 c -5.034,-5.03398 -2.2248,-21.44447 5.8644,-34.25865 4.4432,-7.0385 18.3699,-18.2868 22.6412,-18.2868 2.3467,0 0.7365,2.00686 -4.2839,5.33924 -11.2279,7.45264 -16.2,13.84397 -21.29,27.36667 -3.2621,8.66661 -3.2192,15.49372 0.1138,18.11543 1.375,1.08158 2.5,2.46424 2.5,3.07258 0,1.92676 -2.9997,1.19735 -5.5455,-1.34847 z m 128.2121,-2.21212 c -1.2018,-1.20183 -0.6572,-3.78848 1.3334,-6.33333 3.6823,-4.70758 1.9496,-16.71171 -3.4872,-24.15995 -2.4678,-3.3807 -5.2012,-5.54591 -9.9572,-7.88728 -6.6497,-3.27362 -8.1905,-4.95277 -4.5447,-4.95277 3.2483,0 11.0117,4.08931 14.6272,7.7048 4.7075,4.70748 6.9601,9.64528 8.2727,18.13364 1.1274,7.29089 1.1147,7.3735 -1.9614,12.75 -3.3147,5.79336 -3.2765,5.75112 -4.2828,4.74489 z m -13.9208,-2.92083 c -2.1441,-2.14405 1.675,-9.50649 4.1408,-7.98258 0.9378,0.57962 0.918,1.09875 -0.088,2.3047 -0.7142,0.8561 -1.7505,2.65167 -2.3028,3.99014 -0.5522,1.33847 -1.3397,2.09795 -1.75,1.68774 z m 115.4548,-56.51831 c 3.8044,-7.59881 8.3599,-21.89379 10.3349,-32.43047 2.5385,-13.54302 1.709,-24.83711 -2.559,-34.84095 -2.8679,-6.72218 -4.7621,-9.30985 -12.9186,-17.64737 -8.0505,-8.22929 -10.4891,-10.10863 -15.4621,-11.91641 -6.9975,-2.54373 -10.908,-2.34597 -5.4996,0.27813 6.9984,3.39551 20.1974,19.32957 24.6614,29.7717 2.6379,6.17053 2.7324,7.01324 2.7373,24.40974 l 0,18.01856 -3.2873,6.67986 c -5.0664,10.29522 -15.4803,20.39512 -17.5598,17.0304 -0.2558,-0.41394 0.2126,-2.55144 1.041,-4.75 4.4005,-11.67948 5.2716,-17.64538 5.289,-36.22455 0.016,-16.77098 -0.1726,-18.73115 -2.3573,-24.53542 -3.1197,-8.28819 -7.1265,-16.17805 -11.0391,-21.73741 -1.7419,-2.475 -3.7759,-5.71575 -4.5199,-7.20167 -1.3071,-2.61039 -1.4514,-2.65071 -4.2695,-1.19343 -7.0012,3.62051 -15.35,13.34185 -17.7301,20.6451 -0.6722,2.0625 -1.7006,3.75 -2.2855,3.75 -1.809,0 -0.3223,16.8815 1.6126,18.31165 1.5292,1.13026 3.4364,7.15614 6.8824,21.74494 2.6701,11.30393 7.7444,20.70342 14.8694,27.54336 8.2487,7.91877 12.7744,10.53029 19.7026,11.36938 7.1341,0.86401 8.8772,-0.13445 12.3521,-7.07514 z m -347.4715,3.50164 c -0.3323,-0.33229 -1.1948,-0.36781 -1.9166,-0.0789 -0.7978,0.31922 -0.5608,0.55618 0.6041,0.60416 1.0542,0.0434 1.6448,-0.19293 1.3125,-0.52522 z m 48.7689,-1.96194 c 3.1097,-1.47562 9.182,-7.863 12.7714,-13.43389 4.5975,-7.13552 12.7391,-36.44054 13.4491,-48.40871 0.4926,-8.30164 0.2778,-9.8405 -2.4722,-17.71706 -2.6308,-7.53484 -3.8386,-9.47743 -9.5498,-15.35974 -3.5959,-3.70369 -7.1362,-6.54264 -7.8673,-6.3088 -1.895,0.60614 -10.9467,19.26934 -14.6061,30.11519 -1.7033,5.04852 -3.6343,13.22912 -4.291,18.17912 -1.9991,15.0678 -0.071,38.52048 4.0088,48.7518 0.493,1.23651 1.1438,3.0357 1.4463,3.9982 0.6804,2.16494 2.8195,2.22025 7.1108,0.18389 z m -22.0928,-13.1473 c -3.6734,-6.77949 -6.6287,-13.59393 -7.0162,-16.17788 -0.3682,-2.45547 -0.4285,-10.90158 -0.134,-18.76915 0.527,-14.0802 0.5934,-14.41676 4.2316,-21.44704 6.6189,-12.7902 13.2708,-21.36854 22.4582,-28.96258 l 6.4448,-5.32708 -2.6043,-1.06448 c -4.3529,-1.77925 -6.9566,-4.62714 -5.6594,-6.19017 0.8549,-1.03008 0.7614,-1.34821 -0.3965,-1.34821 -1.7886,0 -3.0665,-2.67364 -1.6858,-3.52699 0.526,-0.32508 1.506,-0.25136 2.1777,0.16381 1.2396,0.7661 6.8096,0.66563 7.6125,-0.13732 0.2412,-0.24124 -1.707,-2.36482 -4.3294,-4.71905 -5.4434,-4.88669 -8.266,-5.52632 -25.0044,-5.66623 -11.0053,-0.092 -14.3401,0.84662 -10.3851,2.92306 1.3118,0.68873 4.5894,2.99353 7.2837,5.12178 4.2652,3.36925 5.4288,3.815 9,3.4476 2.2557,-0.23207 5.1849,-0.75958 6.5093,-1.17224 2.117,-0.65964 2.3398,-0.48959 1.8436,1.40765 -0.3754,1.43577 -0.1054,2.15793 0.8069,2.15793 0.7542,0 1.9044,1.0125 2.5561,2.25 0.6517,1.2375 1.68,2.59395 2.2852,3.01432 0.6935,0.48179 -2.0418,3.79386 -7.3997,8.95985 -9.9188,9.56342 -16.6443,18.45525 -21.4501,28.35924 -4.8736,10.04346 -5.9316,15.1215 -5.2629,25.25916 1.2465,18.8956 5.1341,29.93824 12.8719,36.56145 3.5953,3.07746 9.3283,6.5136 10.967,6.57321 0.3443,0.0125 -2.2301,-5.24826 -5.7207,-11.69064 z m -23.9728,9.40622 6.9324,0.6283 -2.2439,-3.15122 c -1.2341,-1.73317 -2.2204,-3.94292 -2.1918,-4.91055 0.2952,-9.98218 1.4056,-12.8726 3.2972,-8.58334 0.5106,1.15781 0.5846,0.7283 0.2027,-1.176 -3.6688,-18.29281 -4.4471,-32.32286 -2.2127,-39.88398 1.593,-5.39048 7.96,-17.81553 12.3579,-24.11602 1.9195,-2.75 7.1848,-8.7125 11.7006,-13.25 l 8.2106,-8.25 -4.1837,0 c -2.301,0 -4.4618,0.45 -4.8017,1 -0.34,0.55 -1.8665,1 -3.3924,1 -3.6664,0 -4.4582,0.95513 -2.5447,3.06957 0.8621,0.95253 1.2005,1.94528 0.7522,2.20611 -0.4483,0.26083 -6.4401,-0.39741 -13.3151,-1.46275 -9.8363,-1.52421 -15.9096,-1.84157 -28.5,-1.48926 -22.461,0.6285 -32.9159,3.71833 -42.5977,12.58927 -4.6127,4.22632 -6.5096,5.11205 -5.5407,2.58706 0.8027,-2.09183 -0.7146,-1.87247 -2.7718,0.40072 -1.9398,2.14351 -1.5445,2.56025 3.4102,3.59511 1.925,0.40206 5.975,1.91748 9,3.36759 5.0386,2.4154 6.5066,2.63024 17.5,2.56096 6.6,-0.0416 13.8,-0.61163 16,-1.26676 2.2,-0.65513 8.05,-1.43545 13,-1.73404 8.011,-0.48323 9.2747,-0.32118 11.5,1.47478 2.1374,1.72502 2.3166,2.27756 1.2355,3.80965 -3.8672,5.48078 -5.3986,8.23837 -6.8263,12.29199 -0.8717,2.475 -1.9887,5.175 -2.4822,6 -4.5125,7.54409 -7.9162,23.16255 -8.6404,39.64865 -0.6481,14.75039 -0.625,14.79565 6.7134,13.18436 1.925,-0.42268 6.6196,-0.48577 10.4324,-0.1402 z m 49.5676,-127.03781 c 0,-0.18976 -0.9,-1.1595 -2,-2.15499 -1.7275,-1.56331 -2,-1.59443 -2,-0.22831 0,0.86991 0.7875,1.78746 1.75,2.03898 0.9625,0.25153 1.8625,0.50953 2,0.57333 0.1375,0.0638 0.25,-0.0393 0.25,-0.22901 z"
     id="path3168"
     inkscape:connector-curvature="0" />
</svg>
